<svg height="477.60001pt" viewBox="0 0 477.60001 477.60001" width="477.60001pt" xmlns="http://www.w3.org/2000/svg"><path d="m477.601562 238.800781c0 131.886719-106.914062 238.800781-238.800781 238.800781s-238.800781-106.914062-238.800781-238.800781 106.914062-238.800781 238.800781-238.800781 238.800781 106.914062 238.800781 238.800781zm0 0" fill="#382b73"/><path d="m445.398438 238.800781c0 114.101563-92.496094 206.597657-206.597657 206.597657-114.101562 0-206.597656-92.496094-206.597656-206.597657 0-114.101562 92.496094-206.597656 206.597656-206.597656 114.101563 0 206.597657 92.496094 206.597657 206.597656zm0 0" fill="#473080"/><g fill="#382b73"><path d="m340.800781 240.636719h-33.230469l2.984376-30.949219c.402343-4.671875-3.28125-8.683594-7.96875-8.683594h-127.570313c-4.6875 0-8.371094 4.011719-7.96875 8.683594l15.75 163.332031c.046875.515625.140625 1.019531.273437 1.503907.019532.058593.035157.117187.054688.179687.167969.535156.386719 1.050781.65625 1.53125.03125.054687.0625.105469.09375.160156.0625.105469.125.210938.191406.3125.082032.121094.167969.246094.253906.363281.066407.085938.128907.171876.199219.253907.058594.078125.125.15625.191407.234375.046874.050781.089843.105468.136718.15625.082032.089844.164063.175781.25.261718 0 0 0 0 .003906.003907 1.453126 1.460937 3.464844 2.359375 5.671876 2.359375h96.0625c2.207031 0 4.21875-.898438 5.671874-2.359375.003907-.003907.003907-.003907.003907-.003907.085937-.085937.167969-.171874.25-.261718.042969-.050782.09375-.101563.136719-.15625.066406-.078125.128906-.15625.191406-.234375.066406-.082031.132812-.167969.195312-.253907.089844-.117187.171875-.242187.253906-.363281.066407-.101562.128907-.207031.191407-.3125.035156-.050781.0625-.105469.09375-.160156.269531-.480469.488281-.996094.65625-1.53125.015625-.0625.035156-.121094.054687-.179687.136719-.484376.230469-.988282.273438-1.503907l4.136718-42.882812h41.855469c9.925781 0 18-8.078125 18-18v-53.5c0-9.925781-8.074219-18-18-18zm6 71.5c0 3.308593-2.691406 6-6 6h-40.703125l6.3125-65.5h34.390625c3.308594 0 6 2.691406 6 6zm0 0"/><path d="m217.730469 187.558594c.015625.011718.03125.027344.046875.039062.089844.074219.179687.140625.269531.210938.015625.015625.039063.03125.054687.046875.105469.082031.214844.164062.324219.242187.464844.347656 1.015625.226563 1.339844-.113281.050781-.054687.101563-.121094.136719-.1875.078125-.136719.128906-.289063.132812-.453125 0-.03125 0-.058594-.003906-.085938-.007812-.113281-.035156-.230468-.085938-.347656-1.238281-2.855468-2.109374-5.699218-2.632812-8.5-.074219-.398437-.140625-.800781-.203125-1.199218-.058594-.398438-.113281-.796876-.160156-1.191407s-.085938-.792969-.117188-1.183593c-.015625-.199219-.03125-.394532-.042969-.59375-.015624-.203126-.023437-.40625-.035156-.609376-.019531-.378906-.03125-.757812-.035156-1.136718 0-.199219-.003906-.398438 0-.597656 0-.191407.003906-.386719.007812-.578126.003907-.191406.007813-.386718.015626-.578124.039062-.960938.121093-1.914063.238281-2.855469.894531-6.972657 4.011719-13.152344 8.683593-17.855469 6.945313-6.859375 10.574219-16.921875 9.621094-26.339844-.238281-2.664062-.839844-5.269531-1.753906-7.726562-.042969-.117188-.085938-.234375-.132812-.351563-.449219-1.164062-.96875-2.292969-1.550782-3.378906-.292968-.539063-.601562-1.074219-.925781-1.589844-.128906-.207031-.261719-.414062-.394531-.617187-.136719-.203125-.273438-.402344-.410156-.601563-.347657-.5-.710938-.984375-1.089844-1.457031-1.355469-1.695312-2.898438-3.203125-4.585938-4.464844-.054687-.039062-.105468-.074218-.160156-.101562s-.105469-.046875-.160156-.0625c-.027344-.011719-.054688-.019532-.082032-.023438-.109374-.023437-.21875-.027344-.324218-.015625-.128906.015625-.257813.058594-.371094.125-.25.136719-.441406.382813-.496094.671875-.039062.183594-.019531.386719.070313.59375.140625.320313.273437.640625.402343.960938.035157.085937.070313.175781.109376.261718.015624.046876.03125.09375.050781.136719 1.113281 2.816407 1.867187 5.621094 2.28125 8.378907 0 .003906.003906.003906.003906.007812.472656 3.164062.503906 6.265625.117187 9.257812-.890624 6.976563-4.011718 13.164063-8.699218 17.855469-6.953125 6.847657-10.589844 16.917969-9.636719 26.339844.6875 7.8125 4.527344 15.128906 10.183594 19.667969zm0 0"/><path d="m255.5625 187.558594c.015625.011718.03125.027344.046875.039062.089844.074219.179687.140625.269531.210938.019532.015625.035156.03125.054688.046875.105468.082031.214844.164062.320312.242187.328125.246094.699219.257813 1.003906.121094.019532-.007812.039063-.015625.058594-.027344.082032-.042968.15625-.09375.222656-.152344.289063-.261718.429688-.6875.238282-1.128906-.355469-.816406-.679688-1.628906-.976563-2.445312-.074219-.203125-.144531-.40625-.214843-.609375-.210938-.609375-.402344-1.21875-.578126-1.824219-.355468-1.214844-.644531-2.421875-.867187-3.621094-.074219-.398437-.144531-.800781-.203125-1.199218-.152344-.996094-.257812-1.984376-.320312-2.964844-.054688-.785156-.074219-1.566406-.074219-2.34375.003906-.191406.003906-.386719.007812-.578125.003907-.191407.011719-.386719.019531-.578125.039063-.960938.117188-1.914063.238282-2.855469.839844-6.535156 3.628906-12.375 7.828125-16.957031.277343-.304688.566406-.605469.855469-.898438 1.410156-1.394531 2.6875-2.917968 3.8125-4.546875.34375-.5.679687-1.007812.996093-1.527343.238281-.386719.472657-.78125.691407-1.179688.667968-1.191406 1.265624-2.425781 1.78125-3.6875.058593-.140625.113281-.28125.171874-.421875.777344-1.972656 1.367188-4.011719 1.757813-6.078125.027344-.148438.058594-.296875.082031-.445312.285156-1.625.445313-3.265626.476563-4.902344.003906-.144532.003906-.296875.003906-.445313.003906-.59375-.011719-1.1875-.046875-1.777343-.023438-.445313-.058594-.886719-.101562-1.328126-.082032-.890624-.203126-1.769531-.359376-2.644531-.179687-.996093-.410156-1.980469-.691406-2.945312-.03125-.121094-.070312-.242188-.105468-.363281-.179688-.597657-.382813-1.191407-.597657-1.777344-.046875-.117188-.089843-.234375-.132812-.351563-.269531-.699219-.566407-1.382812-.882813-2.054687-.054687-.109375-.109375-.222656-.164062-.332032-.164063-.335937-.332032-.664062-.507813-.988281-.292969-.542969-.601562-1.074219-.921875-1.59375-.132812-.207031-.265625-.414062-.398437-.613281-.132813-.207031-.269531-.40625-.410157-.605469-.347656-.496093-.710937-.984375-1.085937-1.453125-1.355469-1.695312-2.898437-3.203125-4.589844-4.46875-.050781-.039062-.105469-.070312-.15625-.097656-.054687-.027344-.109375-.050781-.164062-.066406-.027344-.007813-.054688-.015625-.082031-.023438-.105469-.023437-.21875-.027344-.320313-.011718-.132813.015624-.257813.058593-.371094.121093-.25.140625-.441406.382813-.5.675781-.035156.183594-.019531.386719.070313.59375.140625.320313.273437.640626.402344.957032.039062.089844.074218.175781.109374.265625.03125.074219.058594.148437.089844.222656.046875.132813.101563.261719.148438.390625.015625.027344.023437.058594.035156.089844.992188 2.625 1.675781 5.238281 2.0625 7.808594.003906.003906.003906.003906.003906.007812.472656 3.164062.503906 6.265625.117188 9.257812-.890625 6.976563-4.011719 13.164063-8.699219 17.855469-6.953125 6.847657-10.589844 16.917969-9.636719 26.339844.691406 7.8125 4.53125 15.128906 10.183594 19.667969zm0 0"/></g><path d="m340.800781 316.136719h-51.5v-12h51.5c3.308594 0 6-2.691407 6-6v-53.5c0-3.308594-2.691406-6-6-6h-44.707031v-12h44.707031c9.925781 0 18 8.074219 18 18v53.5c0 9.925781-8.074219 18-18 18zm0 0" fill="#fff"/><path d="m352.800781 298.136719v-53.5c0-6.628907-5.371093-12-12-12h-44.707031v6h44.707031c3.308594 0 6 2.691406 6 6v53.5c0 3.308593-2.691406 6-6 6h-50.976562l-.523438 6h51.5c6.628907 0 12-5.371094 12-12zm0 0" fill="#d1d3d4"/><path d="m286.832031 366.335938h-96.0625c-4.152343 0-7.617187-3.179688-7.972656-7.316407l-15.75-163.332031c-.402344-4.671875 3.28125-8.683594 7.96875-8.683594h127.566406c4.6875 0 8.371094 4.011719 7.96875 8.683594l-15.75 163.332031c-.351562 4.136719-3.816406 7.316407-7.96875 7.316407zm0 0" fill="#e6e7e8"/><path d="m267.507812 366.335938h-57.417968c-2.480469 0-4.550782-3.179688-4.765625-7.316407l-9.859375-172.015625h86.667968l-9.859374 172.015625c-.214844 4.136719-2.285157 7.316407-4.765626 7.316407zm0 0" fill="#fff"/><path d="m181.507812 344.003906 1.289063 15.015625c.355469 4.136719 3.820313 7.316407 7.972656 7.316407h96.0625c4.152344 0 7.617188-3.179688 7.96875-7.316407l1.292969-15.015625zm0 0" fill="#e6e7e8"/><path d="m251.875 246.300781c-4.339844 0-8.203125 2.007813-10.722656 5.148438-1.210938 1.507812-3.488282 1.507812-4.703125 0-2.519531-3.140625-6.382813-5.148438-10.722657-5.148438-7.597656 0-13.761718 6.164063-13.761718 13.761719 0 10.230469 18.3125 29.601562 24.683594 36.03125 1.191406 1.203125 3.109374 1.199219 4.296874-.003906 6.363282-6.460938 24.6875-25.945313 24.6875-36.027344 0-7.597656-6.160156-13.761719-13.757812-13.761719zm0 0" fill="#e6e7e8"/><path d="m251.875 242.300781c-4.339844 0-8.203125 2.007813-10.722656 5.148438-1.210938 1.507812-3.488282 1.507812-4.703125 0-2.519531-3.140625-6.382813-5.148438-10.722657-5.148438-7.597656 0-13.761718 6.164063-13.761718 13.761719 0 10.230469 18.3125 29.601562 24.683594 36.03125 1.191406 1.203125 3.109374 1.199219 4.296874-.003906 6.363282-6.460938 24.6875-25.945313 24.6875-36.027344 0-7.597656-6.160156-13.761719-13.757812-13.761719zm0 0" fill="#ef5a9d"/><path d="m240.945312 277.757812c-1.1875 1.203126-3.105468 1.207032-4.296874.003907-5.078126-5.125-17.742188-18.472657-22.671876-28.859375-1.273437 2.085937-2.007812 4.539062-2.007812 7.160156 0 10.234375 18.3125 29.601562 24.679688 36.035156 1.195312 1.199219 3.113281 1.199219 4.300781-.007812 6.359375-6.460938 24.6875-25.941406 24.6875-36.023438 0-2.636718-.742188-5.097656-2.027344-7.191406-4.945313 10.335938-17.597656 23.738281-22.664063 28.882812zm0 0" fill="#e43d91"/><path d="m222.914062 90.6875c-.410156-.949219.695313-1.808594 1.523438-1.1875 6.011719 4.496094 10.121094 12.070312 10.847656 20.191406.953125 9.417969-2.679687 19.480469-9.621094 26.339844-4.675781 4.703125-7.792968 10.882812-8.683593 17.855469-.773438 6.027343.128906 12.492187 2.964843 19.019531.410157.949219-.695312 1.804688-1.523437 1.191406-6.03125-4.488281-10.15625-12.078125-10.878906-20.210937-.953125-9.421875 2.683593-19.492188 9.636719-26.339844 4.6875-4.691406 7.808593-10.878906 8.699218-17.855469.777344-6.027344-.125-12.488281-2.964844-19.003906zm0 0" fill="#ef5a9d"/><path d="m225.664062 136.03125c6.941407-6.859375 10.574219-16.921875 9.621094-26.339844-.726562-8.121094-4.835937-15.695312-10.847656-20.191406-.828125-.617188-1.933594.242188-1.523438 1.1875 1.425782 3.277344 2.363282 6.539062 2.84375 9.738281 1.269532 2.898438 2.113282 6.035157 2.398438 9.265625.957031 9.417969-2.679688 19.480469-9.617188 26.339844-4.675781 4.703125-7.792968 10.882812-8.683593 17.855469-.390625 3.027343-.351563 6.167969.136719 9.371093 1.921874 4.351563 4.824218 8.15625 8.429687 10.839844.828125.613282 1.933594-.242187 1.523437-1.191406-2.835937-6.527344-3.738281-12.992188-2.964843-19.019531.890625-6.972657 4.007812-13.152344 8.683593-17.855469zm0 0" fill="#e43d91"/><path d="m260.746094 90.6875c-.410156-.949219.695312-1.808594 1.523437-1.1875 6.011719 4.496094 10.125 12.070312 10.847657 20.191406.953124 9.417969-2.675782 19.480469-9.621094 26.339844-4.671875 4.703125-7.789063 10.882812-8.683594 17.855469-.773438 6.027343.132812 12.492187 2.964844 19.019531.414062.949219-.691406 1.804688-1.519532 1.191406-6.035156-4.488281-10.160156-12.078125-10.878906-20.210937-.953125-9.421875 2.679688-19.492188 9.636719-26.339844 4.6875-4.691406 7.804687-10.878906 8.699219-17.855469.777344-6.027344-.128906-12.488281-2.96875-19.003906zm0 0" fill="#ef5a9d"/><path d="m263.496094 136.03125c6.941406-6.859375 10.574218-16.921875 9.621094-26.339844-.726563-8.121094-4.835938-15.695312-10.847657-20.191406-.828125-.617188-1.933593.242188-1.523437 1.1875 1.425781 3.277344 2.363281 6.539062 2.84375 9.738281 1.269531 2.898438 2.113281 6.035157 2.398437 9.265625.957031 9.417969-2.675781 19.480469-9.617187 26.339844-4.675782 4.703125-7.792969 10.882812-8.683594 17.855469-.390625 3.027343-.351562 6.167969.136719 9.371093 1.921875 4.351563 4.824219 8.15625 8.429687 10.839844.828125.613282 1.933594-.242187 1.523438-1.191406-2.835938-6.527344-3.738282-12.992188-2.964844-19.019531.894531-6.972657 4.007812-13.152344 8.683594-17.855469zm0 0" fill="#e43d91"/></svg>